<svg viewBox="0 0 360 84" xmlns="http://www.w3.org/2000/svg" role="img" aria-label="SelfThreatMap">
  <defs>
    <linearGradient id="stm-sh2" x1="0" y1="0" x2="1" y2="1">
      <stop offset="0" stop-color="#43d3ad"/>
      <stop offset=".55" stop-color="#33a78c"/>
      <stop offset="1" stop-color="#1f7763"/>
    </linearGradient>
    <clipPath id="stm-clip2">
      <path d="M40 8 L66 18 V38 C66 54 54 65 40 69 C26 65 14 54 14 38 V18 Z"/>
    </clipPath>
  </defs>
  <!-- mark -->
  <path d="M40 8 L66 18 V38 C66 54 54 65 40 69 C26 65 14 54 14 38 V18 Z"
        fill="url(#stm-sh2)" stroke="#bcd9e9" stroke-opacity=".4" stroke-width="1.4"/>
  <path d="M40 8 L40 69 C26 65 14 54 14 38 V18 Z" fill="#0d1117" fill-opacity=".12"/>
  <g clip-path="url(#stm-clip2)" fill="none" stroke="#0d1117" stroke-opacity=".30" stroke-width="1.2">
    <circle cx="40" cy="38" r="17"/>
    <ellipse cx="40" cy="38" rx="17" ry="6.6"/>
    <ellipse cx="40" cy="38" rx="6.6" ry="17"/>
    <line x1="23" y1="38" x2="57" y2="38"/>
  </g>
  <path d="M26 50 Q39 22 51 32" fill="none" stroke="#eef4f7" stroke-width="1.5"
        stroke-linecap="round" stroke-dasharray="2 4" opacity=".9"/>
  <circle cx="26" cy="50" r="2.1" fill="#ff5a4d"/>
  <circle cx="51" cy="32" r="5" fill="none" stroke="#ff5a4d" stroke-width="1.3" opacity=".75"/>
  <circle cx="51" cy="32" r="2.6" fill="#fffefb"/>
  <!-- wordmark (Orbitron mit System-Fallback) -->
  <text x="86" y="52" font-family="'Orbitron','Segoe UI',system-ui,sans-serif" font-weight="800" font-size="34" letter-spacing="0.5">
    <tspan fill="#9dbdd0">Self</tspan><tspan fill="#33a78c">ThreatMap</tspan>
  </text>
</svg>
